<?xml version="1.0" encoding="UTF-8"?>
<svg id="Layer_1" data-name="Layer 1" xmlns="http://www.w3.org/2000/svg" viewBox="0 0 100 100">
  <defs>
    <style>
      .cls-1 {
        fill: #231f20;
      }

      .cls-2 {
        fill: #fff;
      }
    </style>
  </defs>
  <path class="cls-1" d="M29.8,92.51c-2.36,2.36-4.44,3.66-7.51,3.37-3.06-.27-3.19-.07-7.89-3.19l-5.85-5.85s-5.99-5.9-3.27-11.97c2.71-6.06,8.04-7.65,8.04-7.65,0,0,6.5-2.68,7.96-3.4,1.45-.71,3.81-4.14,5.01-6.43s3.57-6.86,8.02-9.55c0,0,1.27-.88,2.67-.79,0,0,3.47,0,2.19,3.03,0,0-.34.9-1.11,1.7-.75.81-3.28,4.15-2.43,5.88,0,0,.21.61,1.67.98l35.62-34.39s1.11-.79.07-2.31c-.94-1.39,1.27-2.83,1.69-3.1-.15.09-.99-.78-1.29-.82-.43-.04-.62-.03-.93-.34s-.31-.81,0-1.12c.1-.1.23-.18.37-.2-.09-.24-.04-.54.17-.75.28-.28.75-.28,1.02,0l.05.05c.31-.31.81-.31,1.12,0s.31.81,0,1.12-.19.61-.15.89c.02.26.23.81.23.81l3.39-2.03s-.06.04-.07.04c-.15.09-.99-.78-1.29-.82-.43-.04-.62-.03-.93-.34s-.31-.81,0-1.12c.1-.1.23-.18.37-.2-.09-.24-.04-.54.17-.75.28-.28.75-.28,1.02,0l.05.05c.31-.31.81-.31,1.12,0s.31.81,0,1.12-.19.61-.15.89c.02.26.24.8.24.8-.02.02-.07.05-.12.08l3.23-1.93c-.27-.1-.94-.77-1.2-.81-.43-.04-.62-.03-.93-.34s-.31-.81,0-1.12c.1-.1.23-.18.37-.2-.09-.24-.04-.54.17-.75.28-.28.75-.28,1.02,0l.05.05c.31-.31.81-.31,1.12,0s.31.81,0,1.12-.19.61-.15.89c0,.21.16.61.21.75l3.05-1.81c-.16.1-.73-.89-1.02-.93-.44-.05-.62-.03-.93-.34s-.31-.81,0-1.12c.1-.1.23-.18.37-.2-.09-.24-.04-.54.17-.75.28-.28.75-.28,1.02,0l.05.05c.31-.31.81-.31,1.12,0s.31.81,0,1.12-.2.62-.17.89c.03.21.18.61.23.75l.84-.48s1.94-.67,3.7,1.16c1.76,1.85-.24,3.73-.24,3.73,0,0-1.88,2.07-4.22,1.26,0,0-.49.2-1.02,1.07-.53.87-3.83,6.73-4.92,7.39,0,0-1.57-.77-3.05-.05,0,0-.88.35-1.71,1.12-.83.77-36.72,38.36-36.72,38.36,0,0-2.1,2.25-1.37,3.05.73.78,1.82,1.61,3.5,1.38,1.69-.21,2.5-1.25,2.5-1.25,0,0,1.56-1.31,2.83-.15,1.29,1.16.33,2.88.33,2.88,0,0-2.52,4.67-6.78,5.76s-5.18,5.07-5.18,5.07c0,0-.4.79-.55,1.8-.14,1-.98,2.54-.98,2.54,0,0-1.69,3.98-4.03,6.32Z"/>
  <rect class="cls-2" x="21.54" y="72.08" width="5.47" height="2.77" transform="translate(59.06 4.35) rotate(45)"/>
  <rect class="cls-2" x="22.06" y="76.52" width="5.47" height="2.77" transform="translate(62.35 5.28) rotate(45)"/>
  <circle class="cls-2" cx="28.41" cy="87.41" r=".83"/>
  <circle class="cls-2" cx="25.15" cy="91.45" r=".55"/>
</svg>