<?xml version="1.0" encoding="UTF-8"?>
<svg id="Layer_2" data-name="Layer 2" xmlns="http://www.w3.org/2000/svg" viewBox="0 0 100 100">
  <rect x="49.02" y="18.47" width="1.63" height="9.46" rx=".72" ry=".72" transform="translate(18.27 -21.81) rotate(30)"/>
  <rect x="45.09" y="21.26" width="5.94" height="9.46" rx="2.62" ry="2.62" transform="translate(19.43 -20.55) rotate(30)"/>
  <path d="M61.22,40.36c-.41.61-3.69-1.73-8.88-5.13-1.92-1.26-5.39-3.38-7.66-4.91-1.48-1-3.9-2.5-5.37-3.34-2.74-1.58-7.03-3.78-4.96-2.79.13.06-6.68-3.1-6.43-3.66.4-.88,11.81.51,20.21,6.19s13.66,12.8,13.09,13.64Z"/>
  <rect x="34.69" y="30.38" width="3.56" height="28.13" transform="translate(29.2 -12.58) rotate(32.1)"/>
  <rect x="25.6" y="62.34" width="3.19" height="37.66"/>
  <circle cx="27.51" cy="58.81" r="4.03"/>
  <path d="M85.19,60.35c-.5.75-8.96-5.12-22.19-13.92-4.9-3.26-13.62-8.88-19.43-12.81-3.8-2.57-9.9-6.52-13.56-8.81-6.85-4.29-17.39-10.56-12.35-7.65.33.19-16.22-9.23-16.02-9.99.31-1.2,25.6,8.15,47.09,22.67,21.49,14.52,37.16,29.49,36.47,30.51Z"/>
  <g>
    <path d="M99.89,48.29s0-.03,0-.05c-1.82-.93-3.68-1.88-5.51-2.82-10.27-5.27-20.14-10.24-20.6-9.39-.44.81,9.31,6.11,19.58,11.38,2.35,1.21,4.71,2.46,6.98,3.66-.23-.87-.38-1.79-.45-2.78Z"/>
    <ellipse cx="74.15" cy="36.18" rx=".98" ry="1.65" transform="translate(10.29 88.41) rotate(-65.29)"/>
  </g>
  <g>
    <path d="M100.03,39.23c-.01-.15,0-.29.01-.43,0-.27.03-.54.07-.8-.09-.38-.15-.77-.15-1.17l.05-.39c-5.08-4.78-8.99-8.21-9.46-7.75-.49.48,3.8,5.08,9.49,10.74,0-.06-.01-.13-.02-.19Z"/>
    <ellipse cx="90.87" cy="28.93" rx=".98" ry="1.65" transform="translate(8.93 77.71) rotate(-48.43)"/>
  </g>
</svg>