<?xml version="1.0" encoding="UTF-8"?>
<svg id="Layer_1" data-name="Layer 1" xmlns="http://www.w3.org/2000/svg" viewBox="0 0 100 100">
  <defs>
    <style>
      .cls-1 {
        fill: #231f20;
      }

      .cls-2 {
        fill: #fff;
      }
    </style>
  </defs>
  <path class="cls-1" d="M3.96,70.91l21.36,1.17s1.05.04,1.51,1.21,7.08,20.65,7.08,20.65c0,0,1.68,3.69,4.58,1.56s13.63-35.63,13.63-35.63l1.84-8.38,21.74-24s1.18.22,1.6.03,5.25-3.63,5.25-3.63c0,0,11.85-9.28,14.99-12.8,0,0,2.29-1.45-.25-1.41,0,0-7.96-.67-14.41.67,0,0-1.78.48-3.37,2.95l-7.84,10.3s-.2.5-.15.56.15.18.15.18l-21.89,22.31-21.56,7.87-18.65,7.26-7.76,3.52s-3.41,4.43,2.16,5.59Z"/>
  <polygon class="cls-2" points="13.34 61.32 27.68 68.96 27.49 65.75 33.13 70.22 33.02 67.82 38.01 71.86 38.13 69.32 42.2 73.2 36.67 66.28 36.53 69.1 31.09 62.93 31.14 66.31 23.55 59.83 24.02 63.43 18.91 59.08 13.34 61.32"/>
  <path class="cls-1" d="M82.54,23.9l1.12,1.01s-.61,2.24,1.28,2.47,1.82-2.12,1.82-2.12c0,0-.25-1.47-1.51-1.55l-.6.17-.92-.93-1.19.94Z"/>
  <path class="cls-1" d="M86.14,20.38l1.12,1.01s-.61,2.24,1.28,2.47,1.82-2.12,1.82-2.12c0,0-.25-1.47-1.51-1.55l-.6.17-.92-.93-1.19.94Z"/>
  <path class="cls-1" d="M89.57,17.81l1.12,1.01s-.61,2.24,1.28,2.47,1.82-2.12,1.82-2.12c0,0-.25-1.47-1.51-1.55l-.6.17-.92-.93-1.19.94Z"/>
  <path class="cls-1" d="M80.89,12.7l-1.12-1.01s.61-2.24-1.28-2.47-1.82,2.12-1.82,2.12c0,0,.25,1.47,1.51,1.55l.6-.17.92.93,1.19-.94Z"/>
  <path class="cls-1" d="M78.38,15.92l-1.12-1.01s.61-2.24-1.28-2.47-1.82,2.12-1.82,2.12c0,0,.25,1.47,1.51,1.55l.6-.17.92.93,1.19-.94Z"/>
  <path class="cls-1" d="M76.27,19.07l-1.12-1.01s.61-2.24-1.28-2.47-1.82,2.12-1.82,2.12c0,0,.25,1.47,1.51,1.55l.6-.17.92.93,1.19-.94Z"/>
  <circle class="cls-2" cx="36.23" cy="82.42" r="1.09"/>
  <circle class="cls-2" cx="38.07" cy="87.16" r="1.63"/>
</svg>