<?xml version="1.0" encoding="UTF-8"?>
<svg id="Layer_3" data-name="Layer 3" xmlns="http://www.w3.org/2000/svg" viewBox="0 0 100 100">
  <defs>
    <style>
      .cls-1 {
        stroke: #fff;
        stroke-miterlimit: 10;
        stroke-width: .75px;
      }

      .cls-2 {
        fill: #fff;
      }
    </style>
  </defs>
  <path d="M72.44,18.13H16.11s-8.18,10.78-9.67,20.08c-1.49,9.3-2.6,23.99,0,30.31s6.88,17.11,8.74,17.48,45.62,4.98,59.68,0c3.66-1.3,7.58-14.73,8.03-21.09,0,0,.59-16.57.34-20.79-.48-8.03-3.58-20.33-5.83-22.84s-4.96-3.15-4.96-3.15Z"/>
  <ellipse class="cls-2" cx="71.38" cy="52.3" rx="8.75" ry="30.57"/>
  <path class="cls-2" d="M65.85,18.13c2.73,0-2.73,0-2.73,0,0,0-5.67,10.85-7.22,20.21-1.49,8.96-1.12,22.14,0,28.4s8.19,19.32,8.66,19.32,2.05.11,2.05.11c0,0-6.34-10.87-8.2-17.78-.94-3.48-2.27-17.14-.24-29.79,1.67-10.39,6.58-20.47,7.67-20.47Z"/>
  <path class="cls-2" d="M21.9,18.13c2.73,0-2.73,0-2.73,0,0,0-5.67,10.85-7.22,20.21-1.49,8.96-1.12,22.14,0,28.4s8.19,19.32,8.66,19.32,2.05.11,2.05.11c0,0-6.34-10.87-8.2-17.78-.94-3.48-2.27-17.14-.24-29.79,1.67-10.39,6.58-20.47,7.67-20.47Z"/>
  <path class="cls-1" d="M53.36,39.44h-2.91s-.42-.95-.85-1.06-3.81-.48-4.76-.32-4.07,1.06-4.44,1.74-.32,2.17-.32,2.17c0,0,.63.74,1,.9s7.56.69,8.3.48,1.22-1.22,1.22-1.37,2.22-.11,2.22-.11c0,0,.85.95,1.22,1s10.36.16,10.47-.05c.05-.1.05-.29.04-.48-.01-.26.11-.5.33-.64.41-.25.93-.59.92-1,0-.49-.38-.81-.63-1.05-.27-.25-.82-.96-.82-.96l-9.67-.37s-.9.53-1.32,1.11Z"/>
  <path class="cls-1" d="M16.6,39.92h2.91s.42-.95.85-1.06,3.81-.48,4.76-.32,4.07,1.06,4.44,1.74.32,2.17.32,2.17c0,0-.63.74-1,.9s-7.56.69-8.3.48-1.22-1.22-1.22-1.37c0-.16-2.22-.11-2.22-.11,0,0-.85.95-1.22,1s-10.36.16-10.47-.05c-.05-.1-.05-.29-.04-.48.01-.26-.11-.5-.33-.64-.41-.25-.93-.59-.92-1,0-.49.38-.81.63-1.05.27-.25.82-.96.82-.96l9.67-.37s.9.53,1.32,1.11Z"/>
  <path class="cls-1" d="M53.36,68.29h-2.91s-.42-.95-.85-1.06-3.81-.48-4.76-.32-4.07,1.06-4.44,1.74-.32,2.17-.32,2.17c0,0,.63.74,1,.9s7.56.69,8.3.48,1.22-1.22,1.22-1.37,2.22-.11,2.22-.11c0,0,.85.95,1.22,1s10.36.16,10.47-.05c.05-.1.05-.29.04-.48-.01-.26.11-.5.33-.64.41-.25.93-.59.92-1,0-.49-.38-.81-.63-1.05-.27-.25-.82-.96-.82-.96l-9.67-.37s-.9.53-1.32,1.11Z"/>
  <path class="cls-1" d="M17.33,69.28h2.91s.42-.95.85-1.06,3.81-.48,4.76-.32,4.07,1.06,4.44,1.74.32,2.17.32,2.17c0,0-.63.74-1,.9s-7.56.69-8.3.48-1.22-1.22-1.22-1.37c0-.16-2.22-.11-2.22-.11,0,0-.85.95-1.22,1s-10.36.16-10.47-.05c-.05-.1-.41-.78-.4-.96.01-.26-.9-.74-.9-1.15,0-.49.38-.81.63-1.05.27-.25.82-.96.82-.96l9.67-.37s.9.53,1.32,1.11Z"/>
  <path class="cls-1" d="M59.89,84.22h-2.91s-.42-.95-.85-1.06-8.95-.18-9.32.5.16.95.16.95c0,0,1.83,1.31,8.54,1.38.77,0,1.13-.35,1.13-.51s2.76-.11,2.76-.11c0,0,1.7.87,2.07.92s9.03-.14,9.14-.36c.05-.1,1.06-1.09,1.05-1.49,0-.49-.41-.63-.66-.87-.27-.25-1.06-.45-1.06-.45l-8.73-.04s-.9.53-1.32,1.11Z"/>
  <path class="cls-1" d="M23.63,84.83h2.91s.42-.95.85-1.06,8.95-.18,9.32.5-.16.95-.16.95c0,0-1.83,1.31-8.54,1.38-.77,0-1.13-.35-1.13-.51,0-.16-2.76-.11-2.76-.11,0,0-1.7.87-2.07.92s-9.03-.14-9.14-.36c-.05-.1-1.06-1.09-1.05-1.49,0-.49.41-.63.66-.87.27-.25,1.06-.45,1.06-.45l8.73-.04s.9.53,1.32,1.11Z"/>
  <path class="cls-1" d="M59.85,19.08h-2.59s-.38-.85-.75-.94-3.4-.42-4.25-.28-3.63.94-3.96,1.56-.28,1.93-.28,1.93c0,0,.57.66.9.8s6.75.61,7.41.42,1.09-1.09,1.09-1.23,1.98-.09,1.98-.09c0,0,.75.85,1.09.9s9.25.14,9.34-.05c.04-.09.05-.26.04-.42-.01-.23.1-.45.29-.57.36-.23.83-.53.82-.89,0-.43-.34-.73-.56-.94-.24-.23-.74-.86-.74-.86l-8.63-.33s-.8.47-1.18.99Z"/>
  <path class="cls-1" d="M23.99,19.08h2.59s.38-.85.75-.94,3.4-.42,4.25-.28,3.63.94,3.96,1.56.28,1.93.28,1.93c0,0-.57.66-.9.8s-6.75.61-7.41.42-1.09-1.09-1.09-1.23c0-.14-1.98-.09-1.98-.09,0,0-.75.85-1.09.9s-9.25.14-9.34-.05c-.04-.09-.05-.26-.04-.42.01-.23-.1-.45-.29-.57-.36-.23-.83-.53-.82-.89,0-.43.34-.73.56-.94.24-.23.74-.86.74-.86l8.63-.33s.8.47,1.18.99Z"/>
  <rect x="84.42" y="68.82" width="8.88" height="6.29" rx="3.14" ry="3.14" transform="translate(44.15 -33.28) rotate(27.98)"/>
  <rect x="84.42" y="72.96" width="1.38" height="12.12" transform="translate(47.03 -30.7) rotate(27.98)"/>
</svg>