<?xml version="1.0" encoding="UTF-8"?>
<svg id="Layer_3" data-name="Layer 3" xmlns="http://www.w3.org/2000/svg" viewBox="0 0 100 100">
  <defs>
    <style>
      .cls-1 {
        fill: #fff;
      }
    </style>
  </defs>
  <path d="M75.79,16.03l-26.09,30.23s-6.21-4.29-9.41-3.87c-3.2.43-5.64.8-7.51,3.78-1.87,2.99-2.31,4.45-3.93,7.23-1.01,1.74-1.56,2.35-2.37,2.75s-7.84,2.32-9.11,2.78-4.28,1.74-6.21,3.38-5.02,5.28-5.91,7.86-.89,11.56,2.66,15.49,13.74,13.31,18.33,13.96,11.45.99,15.55-3.67c4.1-4.66,5.13-8.46,5.44-9.7s1.07-9.2,1.29-9.93,3.16-4.05,3.29-4.2,3.25-1.63,4.67-3.08,3.7-3.51,3.99-5.01.38-3.94-.48-5.85-2.58-5.16-3.31-5.96-1.27-1.34-1.27-1.34l25.79-30.18,2.13-.14,10.53-12.01s.01-2.25-2.57-4.39-5.06-2.28-5.06-2.28l-10.4,11.95-.03,2.2Z"/>
  <circle class="cls-1" cx="36.68" cy="67.13" r="5.82"/>
  <g>
    <rect x="81.89" y="3.07" width="3.47" height=".94" transform="translate(22.62 -53.77) rotate(40.79)"/>
    <rect x="80.95" y=".98" width="1.74" height="3.48" rx=".6" ry=".6" transform="translate(21.65 -52.79) rotate(40.79)"/>
  </g>
  <g>
    <rect x="90.36" y="10.38" width="3.47" height=".94" transform="translate(154.74 79.22) rotate(-139.21)"/>
    <rect x="92.3" y="10.78" width="1.74" height="3.48" rx=".6" ry=".6" transform="translate(155.53 82.86) rotate(-139.21)"/>
  </g>
  <g>
    <rect x="87.12" y="14.14" width="3.47" height=".94" transform="translate(146.57 83.72) rotate(-139.21)"/>
    <rect x="89.05" y="14.54" width="1.74" height="3.48" rx=".6" ry=".6" transform="translate(147.37 87.35) rotate(-139.21)"/>
  </g>
  <g>
    <rect x="84.02" y="17.73" width="3.47" height=".94" transform="translate(138.78 88) rotate(-139.21)"/>
    <rect x="85.95" y="18.14" width="1.74" height="3.48" rx=".6" ry=".6" transform="translate(139.57 91.64) rotate(-139.21)"/>
  </g>
  <g>
    <rect x="78.58" y="6.9" width="3.47" height=".94" transform="translate(24.32 -50.68) rotate(40.79)"/>
    <rect x="77.64" y="4.82" width="1.74" height="3.48" rx=".6" ry=".6" transform="translate(23.35 -49.69) rotate(40.79)"/>
  </g>
  <g>
    <rect x="75.49" y="10.49" width="3.47" height=".94" transform="translate(25.92 -47.78) rotate(40.79)"/>
    <rect x="74.54" y="8.41" width="1.74" height="3.48" rx=".6" ry=".6" transform="translate(24.94 -46.8) rotate(40.79)"/>
  </g>
</svg>