<?xml version="1.0" encoding="UTF-8"?>
<svg id="Layer_2" data-name="Layer 2" xmlns="http://www.w3.org/2000/svg" viewBox="0 0 100 100">
  <defs>
    <style>
      .cls-1 {
        fill: #fff;
      }
    </style>
  </defs>
  <path d="M37.06,42.61c.05-.15.11-.29.2-.41.41-.6,1.74-2.4,3.32-3.22,4.16-2.15,1.81-2.68.76-2.74-.68-.04-5.93,1.84-7.04,2.47-3.06,1.75-4.2,3.12-5.13,5.57-.47,1.25-1.85,5.05-2.76,6.87-.73,1.46-1.94,4.04-3.98,5.05-1.44.72-4.01,1.86-5.47,2.38s-5.97,1.65-7.89,3.17c-3.16,2.52-4.68,4.35-5.34,6.44s-.9,7.21.62,10.29,5.02,9.02,11.85,14.02,14.11,5.97,17.45,3.27,6.32-7.47,8.38-13.67c2.06-6.2,2.14-6.89,3.42-8.07s2.93-1.31,6.7-4.1c1.55-1.15,3.61-2.78,4.36-5.49s.73-5.17-.43-5.28-1.64,3.21-3.35,4.15c-2.92,1.6-4.12.9-5.32.37s-2.5-1.52-3.43-3.22c-.38-.69-.5-1.25-.53-1.57-.02-.18.04-.36.16-.49l35.66-41.48,17.19-7.59s3.01-.7.97-1.57-3.11-1.54-3.11-1.54l-1.56.05-18.42,2.71c-.11.02-.22.06-.3.13-.22.18-.59.57-.51,1.09.1.58.06,1.58.03,1.99,0,.12-.05.23-.13.32l-31.44,36.87c-.32.38-.84.54-1.31.4-1.67-.49-5.18-2.14-3.62-7.17Z"/>
  <g>
    <rect x="74.37" y="7.25" width="2.44" height="1.26" transform="translate(72.3 -68.05) rotate(81.58)"/>
    <ellipse cx="74.66" cy="6.09" rx="1.89" ry=".98" transform="translate(-.25 5.5) rotate(-4.21)"/>
  </g>
  <g>
    <rect x="78.47" y="6.61" width="2.44" height="1.26" transform="translate(75.18 -72.65) rotate(81.58)"/>
    <ellipse cx="78.76" cy="5.45" rx="1.89" ry=".98" transform="translate(-.19 5.8) rotate(-4.21)"/>
  </g>
  <g>
    <rect x="82.61" y="6.11" width="2.44" height="1.26" transform="translate(78.22 -77.17) rotate(81.58)"/>
    <ellipse cx="82.9" cy="4.96" rx="1.89" ry=".98" transform="translate(-.14 6.1) rotate(-4.21)"/>
  </g>
  <g>
    <rect x="86.93" y="5.53" width="2.44" height="1.26" transform="translate(81.33 -81.94) rotate(81.58)"/>
    <ellipse cx="87.23" cy="4.37" rx="1.89" ry=".98" transform="translate(-.09 6.42) rotate(-4.21)"/>
  </g>
  <g>
    <rect x="90.98" y="4.9" width="2.44" height="1.26" transform="translate(84.16 -86.48) rotate(81.58)"/>
    <ellipse cx="91.27" cy="3.74" rx="1.89" ry=".98" transform="translate(-.03 6.71) rotate(-4.21)"/>
  </g>
  <rect class="cls-1" x="30.56" y="60.72" width="9.36" height="3.9" transform="translate(49.5 -7.8) rotate(40.79)"/>
  <rect class="cls-1" x="20.19" y="72.88" width="9.36" height="3.6" transform="translate(54.82 1.89) rotate(40.79)"/>
  <rect class="cls-1" x="17" y="77.3" width="9.36" height="2.17" transform="translate(56.47 4.88) rotate(40.79)"/>
  <circle class="cls-1" cx="26.59" cy="86.32" r=".99"/>
</svg>