<?xml version="1.0" encoding="UTF-8"?>
<svg id="Layer_2" data-name="Layer 2" xmlns="http://www.w3.org/2000/svg" viewBox="0 0 715.08 250.96">
  <defs>
    <style>
      .cls-1, .cls-2 {
        fill: #b30006;
      }

      .cls-2, .cls-3 {
        fill-rule: evenodd;
      }

      .cls-3 {
        fill: #b11e24;
      }

      .cls-4 {
        font-size: 96.01px;
      }

      .cls-4, .cls-5 {
        fill: #3f3b3a;
        font-family: Aabak-Bold, Aabak;
        font-weight: 700;
      }

      .cls-5 {
        font-size: 96.01px;
      }
    </style>
  </defs>
  <g>
    <path class="cls-3" d="M394.83,89.41c-1-.26-1.8.23-2.71.67-3.9,1.88-10.83,5.45-10.83,5.45l-.38,2.27,3.18,3.53c.38-.14.89-.31,1.59-.48,1.33-.34,1.5-.17,2.78-.03,1.14.12,2.85-4.38,4.01-6.05.34.31.75.54,1.23.66,1.57.41,3.17-.53,3.57-2.09.41-1.56-.87-3.52-2.44-3.93Z"/>
    <g>
      <polygon class="cls-3" points="380.65 100.55 348.2 131.4 349.14 132.4 381.3 101.28 380.65 100.55"/>
      <path class="cls-3" d="M360.82,133.77c-1.12.67-1.85,1.21-3.49.83-2.28-.53-2.38-3.23-2.37-3.45,0-.07-.01-.49-.04-1.09l27.47-27.57-.55-.61-32.15,31.11,1.27,1.34,1.74-1.76s1.33,2.87,1.14,3.44c-.2.56-6.18,14.36-7.07,14.78-.89.42-1.86-.52-1.86-.52l-9.66-10.27c-.12-.12-.11-.32,0-.43l3.15-2.98c.12-.12.32-.11.43.01l4.83,5.11,3.81-3.86-4.7-4.98c-.12-.12-.11-.32,0-.43l3.15-2.98c.12-.12.32-.11.43.01l1.25,1.32,32.46-30.87-.65-.72-26.1,24.33c-.5-.41-1.09-.93-1.69-1.55-1.5-1.55.22-3.56,1.11-4.28.65-.53,1.67-1.19,2.01-1.87.35-.69-.05-1.29-.6-1.9-.55-.61-2.13-.74-5.64.7-3.5,1.44-4,5.77-6.94,9.94-2.95,4.17-6.85,4.52-6.85,4.52,0,0-1.05.37-4.46,1.23-1.56.39-4.63,1.04-7.07,6.2-.31.66-.5,1.35-.6,2.07-.02.07-.04.15-.06.22-1.27,4.9,2.76,16.25,13.82,19.59,7.98,2.41,12.44-1.13,13.71-6.02l.04-.17c1.46-3.2,2.22-6.83,2.71-7.92.75-1.65,2.87-2.26,4.17-2.61,1.3-.34,2.34-.33,4.63-3.58,1.42-2,2.43-4.15,1.79-5.19-.65-1.05-1.04-.1-2.62.84Z"/>
    </g>
  </g>
  <g>
    <path class="cls-2" d="M341.54,95.99c.41,1.47,1.56,2.6,3.09,2.41.46-.05.88-.22,1.24-.46.87,1.7,1.91,6.13,2.99,6.17,1.23.04,1.41-.1,2.62.38.59.24,1.03.44,1.36.62l18.07,23.97.55.81c.19.51.34,1.63.1,2.76-.13.59-.4,1.37-1.01,1.82-.18-.04-.67-.24-1.7-1.06-.34-.27-.61-.54-.84-.77-.49-.49-1.04-1.04-1.91-1-.85.04-1.36.65-1.53.85-1.06,1.27-.78,3.48.85,6.58,1.61,3.07,2.77,3.76,4.11,4.35.14.06.27.12.4.18,1.49.73,2.37,1.61,2.69,2.68.23.75,1.08,4.95,1.6,7.59.53,2.96,1.87,5.24,3.99,6.76,1.46,1.05,3.27,1.72,5.4,2.01,1.29.18,2.7.21,4.23.11,5.69-.38,10.78-3.1,13.96-7.47,2.91-4,3.82-8.87,2.56-13.72-1.46-5.61-4.82-6.91-6.43-7.54-.08-.03-.16-.06-.24-.09-.36-.14-.72-.28-1.11-.43-2.83-1.08-6.35-2.43-8.09-5.76-.76-1.46-1.24-2.9-1.7-4.3-.85-2.58-1.65-5.02-4.08-6.43-3.34-1.93-5.5-2.33-6.8-1.25-.45.38-1.81,1.51-1.23,3.19.29.83.98,1.52,1.59,2.13.13.13.25.25.36.36.46.49.91,1.28.87,1.77,0,.1-.03.21-.22.36-.21.16-.43.33-.66.49l-18.96-23.09-.06-2s-6.07-4.23-9.5-6.49c-.8-.53-1.67-1-2.65-1.06-3.79-.24-4.29,3.33-3.95,4.55ZM374.12,133.77l2.18,3.2c-.41.37-.8.8-.75,1.07,0,0,3.97,12.66,4.76,13.17.78.5,1.82-.24,1.82-.24l11.09-8.82c.13-.1.15-.28.05-.41l-3.14-3.8c-.1-.12-.29-.14-.41-.04l-5.92,4.65-2.11-2.84,5.78-4.55c.12-.1.14-.28.04-.4l-3.01-3.83c-.1-.12-.29-.14-.41-.04l-1.39,1.09-4.4-5.69c.24-.17.48-.34.71-.52.76-.59,1.2-1.38,1.27-2.3.15-1.88-1.31-3.54-1.6-3.85-.13-.14-.27-.28-.42-.43-.26-.26-.71-.71-.88-.98.05-.06.13-.14.26-.26.05,0,.16,0,.32.01.48.07,1.51.35,3.39,1.44,1.52.88,2.08,2.57,2.85,4.92.47,1.43,1,3.05,1.87,4.71,2.23,4.26,6.46,5.87,9.54,7.05.38.14.73.28,1.07.41.08.03.17.07.26.1,1.37.53,3.67,1.42,4.77,5.68,1.05,4.05.29,8.11-2.13,11.44-2.66,3.65-7.12,6.03-11.92,6.35-6.35.42-9.86-1.75-10.74-6.65v-.02c-.14-.69-1.33-6.74-1.67-7.86-.54-1.82-1.93-3.29-4.11-4.35-.18-.09-.35-.16-.51-.23-.8-.35-1.49-.65-2.78-3.11-.58-1.1-.88-1.93-1.04-2.52.1.08.2.17.31.25.91.72,3.03,2.39,4.77,1.31,1.05-.65,1.8-1.72,2.21-3.09ZM356.19,105.78l1.19-1.1,23.24,28.82-2.07,1.62-22.36-29.33Z"/>
    <path class="cls-2" d="M357.74,97.35c-.73-.1-1.23-.77-1.13-1.48s.77-1.22,1.5-1.12,1.23.77,1.13,1.48-.77,1.22-1.5,1.12Z"/>
    <ellipse class="cls-1" cx="354.7" cy="93.77" rx="1.33" ry="1.32"/>
    <path class="cls-2" d="M351.3,92.8c-.73-.1-1.23-.77-1.13-1.48s.77-1.22,1.5-1.12,1.23.77,1.13,1.48-.77,1.22-1.5,1.12Z"/>
    <path class="cls-2" d="M348.39,90.75c-.73-.1-1.23-.77-1.13-1.48s.77-1.22,1.5-1.12,1.23.76,1.13,1.48-.77,1.22-1.5,1.12Z"/>
  </g>
  <text class="cls-4" transform="translate(41.69 159.21)"><tspan x="0" y="0">Music</tspan></text>
  <text class="cls-5" transform="translate(426.24 159.21)"><tspan x="0" y="0">Mixer</tspan></text>
</svg>