<?xml version="1.0" encoding="UTF-8"?>
<svg id="Layer_1" data-name="Layer 1" xmlns="http://www.w3.org/2000/svg" viewBox="0 0 100 100">
  <defs>
    <style>
      .cls-1, .cls-2 {
        fill: #231f20;
        stroke: #fff;
      }

      .cls-1, .cls-2, .cls-3 {
        stroke-miterlimit: 10;
      }

      .cls-1, .cls-3 {
        stroke-width: .5px;
      }

      .cls-2 {
        stroke-width: .25px;
      }

      .cls-3 {
        fill: #fff;
        stroke: #231f20;
      }
    </style>
  </defs>
  <g>
    <path class="cls-2" d="M62.74,56.77s-2.05.45-2.2,1.64,0,3.28,0,3.28c0,0,1.15,1.15,3.02,1.19s2.2,0,2.2,0c0,0,2.23-.52,2.31-1.12s0-3.58,0-3.58c0,0-.34-1.34-2.31-1.42v1.97s-.37.45-1.47.52-1.59-.6-1.59-.6l.04-1.9Z"/>
    <path class="cls-2" d="M65.83,19.19s2.05-.45,2.2-1.64,0-3.28,0-3.28c0,0-1.15-1.15-3.02-1.19s-2.2,0-2.2,0c0,0-2.23.52-2.31,1.12s0,3.58,0,3.58c0,0,.34,1.34,2.31,1.42v-1.97s.37-.45,1.47-.52,1.59.6,1.59.6l-.04,1.9Z"/>
    <path class="cls-2" d="M62.74,56.77l.08-37.58v-1.97s1.64-1.22,3.05.07l-.04,1.9v37.58l-.08,1.97s-1.58,1.17-3.05-.07l.04-1.9Z"/>
  </g>
  <g>
    <path class="cls-2" d="M91.47,62.9s-2.05.45-2.2,1.64,0,3.28,0,3.28c0,0,1.15,1.15,3.02,1.19s2.2,0,2.2,0c0,0,2.23-.52,2.31-1.12s0-3.58,0-3.58c0,0-.34-1.34-2.31-1.42v1.97s-.37.45-1.47.52-1.59-.6-1.59-.6l.04-1.9Z"/>
    <path class="cls-2" d="M94.57,25.31s2.05-.45,2.2-1.64,0-3.28,0-3.28c0,0-1.15-1.15-3.02-1.19s-2.2,0-2.2,0c0,0-2.23.52-2.31,1.12s0,3.58,0,3.58c0,0,.34,1.34,2.31,1.42v-1.97s.37-.45,1.47-.52,1.59.6,1.59.6l-.04,1.9Z"/>
    <path class="cls-2" d="M91.47,62.9l.08-37.58v-1.97s1.64-1.22,3.05.07l-.04,1.9v37.58l-.08,1.97s-1.58,1.17-3.05-.07l.04-1.9Z"/>
  </g>
  <g>
    <path class="cls-2" d="M34.04,56.77s-2.05.45-2.2,1.64,0,3.28,0,3.28c0,0,1.15,1.15,3.02,1.19s2.2,0,2.2,0c0,0,2.23-.52,2.31-1.12s0-3.58,0-3.58c0,0-.34-1.34-2.31-1.42v1.97s-.37.45-1.47.52-1.59-.6-1.59-.6l.04-1.9Z"/>
    <path class="cls-2" d="M37.13,19.19s2.05-.45,2.2-1.64,0-3.28,0-3.28c0,0-1.15-1.15-3.02-1.19s-2.2,0-2.2,0c0,0-2.23.52-2.31,1.12s0,3.58,0,3.58c0,0,.34,1.34,2.31,1.42v-1.97s.37-.45,1.47-.52,1.59.6,1.59.6l-.04,1.9Z"/>
    <path class="cls-2" d="M34.04,56.77l.08-37.58v-1.97s1.64-1.22,3.05.07l-.04,1.9v37.58l-.08,1.97s-1.58,1.17-3.05-.07l.04-1.9Z"/>
  </g>
  <g>
    <path class="cls-2" d="M5.43,62.91s-2.05.45-2.2,1.64,0,3.28,0,3.28c0,0,1.15,1.15,3.02,1.19s2.2,0,2.2,0c0,0,2.23-.52,2.31-1.12s0-3.58,0-3.58c0,0-.34-1.34-2.31-1.42v1.97s-.37.45-1.47.52-1.59-.6-1.59-.6l.04-1.9Z"/>
    <path class="cls-2" d="M8.53,25.32s2.05-.45,2.2-1.64,0-3.28,0-3.28c0,0-1.15-1.15-3.02-1.19s-2.2,0-2.2,0c0,0-2.23.52-2.31,1.12s0,3.58,0,3.58c0,0,.34,1.34,2.31,1.42v-1.97s.37-.45,1.47-.52,1.59.6,1.59.6l-.04,1.9Z"/>
    <path class="cls-2" d="M5.43,62.91l.08-37.58v-1.97s1.64-1.22,3.05.07l-.04,1.9v37.58l-.08,1.97s-1.58,1.17-3.05-.07l.04-1.9Z"/>
  </g>
  <path class="cls-1" d="M8.67,42.67s35.24,15.2,83.13,0v30.54s-5.14,6.41-40.15,7.6c0,0-35.31.15-42.98-7.6v-30.54Z"/>
  <path class="cls-1" d="M8.67,73.22s1.48,2.4,4.26,2.64c10.29.87,38.31,2.64,74.11-.03,1.58-.12,3.17-1.64,4.77-1.77v9.49s-7.09,6.59-42.1,6.91c0,0-32.96.17-41.04-6.91v-10.32Z"/>
  <path class="cls-1" d="M4.59,28.58s.52-9.35,31.47-11.81,47.82,3.13,47.82,3.13c0,0,10.73,2.72,11.17,8.68v10.69s-8.31,3.99-12.55,4.88-32.14,7.64-62.87.48c0,0-13.3-3.61-15.05-4.99v-11.07Z"/>
  <path class="cls-3" d="M6.85,29.81s6.48-7.9,39.59-8.79,45.48,7.45,47.12,8.79-11.47,9.68-42.16,9.83c-30.69.15-40.67-5.07-44.55-9.83Z"/>
  <g>
    <path class="cls-2" d="M62.74,86.05s-2.05.45-2.2,1.64,0,3.28,0,3.28c0,0,1.15,1.15,3.02,1.19s2.2,0,2.2,0c0,0,2.23-.52,2.31-1.12s0-3.58,0-3.58c0,0-.34-1.34-2.31-1.42v1.97s-.37.45-1.47.52-1.59-.6-1.59-.6l.04-1.9Z"/>
    <path class="cls-2" d="M65.83,48.46s2.05-.45,2.2-1.64,0-3.28,0-3.28c0,0-1.15-1.15-3.02-1.19s-2.2,0-2.2,0c0,0-2.23.52-2.31,1.12s0,3.58,0,3.58c0,0,.34,1.34,2.31,1.42v-1.97s.37-.45,1.47-.52,1.59.6,1.59.6l-.04,1.9Z"/>
    <path class="cls-2" d="M62.74,86.05l.08-37.58v-1.97s1.64-1.22,3.05.07l-.04,1.9v37.58l-.08,1.97s-1.58,1.17-3.05-.07l.04-1.9Z"/>
  </g>
  <g>
    <path class="cls-2" d="M91.47,79.43s-2.05.45-2.2,1.64,0,3.28,0,3.28c0,0,1.15,1.15,3.02,1.19s2.2,0,2.2,0c0,0,2.23-.52,2.31-1.12s0-3.58,0-3.58c0,0-.34-1.34-2.31-1.42v1.97s-.37.45-1.47.52-1.59-.6-1.59-.6l.04-1.9Z"/>
    <path class="cls-2" d="M94.57,41.84s2.05-.45,2.2-1.64,0-3.28,0-3.28c0,0-1.15-1.15-3.02-1.19s-2.2,0-2.2,0c0,0-2.23.52-2.31,1.12s0,3.58,0,3.58c0,0,.34,1.34,2.31,1.42v-1.97s.37-.45,1.47-.52,1.59.6,1.59.6l-.04,1.9Z"/>
    <path class="cls-2" d="M91.47,79.43l.08-37.58v-1.97s1.64-1.22,3.05.07l-.04,1.9v37.58l-.08,1.97s-1.58,1.17-3.05-.07l.04-1.9Z"/>
  </g>
  <g>
    <path class="cls-2" d="M34.04,86.05s-2.05.45-2.2,1.64,0,3.28,0,3.28c0,0,1.15,1.15,3.02,1.19s2.2,0,2.2,0c0,0,2.23-.52,2.31-1.12s0-3.58,0-3.58c0,0-.34-1.34-2.31-1.42v1.97s-.37.45-1.47.52-1.59-.6-1.59-.6l.04-1.9Z"/>
    <path class="cls-2" d="M37.13,48.46s2.05-.45,2.2-1.64,0-3.28,0-3.28c0,0-1.15-1.15-3.02-1.19s-2.2,0-2.2,0c0,0-2.23.52-2.31,1.12s0,3.58,0,3.58c0,0,.34,1.34,2.31,1.42v-1.97s.37-.45,1.47-.52,1.59.6,1.59.6l-.04,1.9Z"/>
    <path class="cls-2" d="M34.04,86.05l.08-37.58v-1.97s1.64-1.22,3.05.07l-.04,1.9v37.58l-.08,1.97s-1.58,1.17-3.05-.07l.04-1.9Z"/>
  </g>
  <g>
    <path class="cls-2" d="M5.43,79.44s-2.05.45-2.2,1.64,0,3.28,0,3.28c0,0,1.15,1.15,3.02,1.19s2.2,0,2.2,0c0,0,2.23-.52,2.31-1.12s0-3.58,0-3.58c0,0-.34-1.34-2.31-1.42v1.97s-.37.45-1.47.52-1.59-.6-1.59-.6l.04-1.9Z"/>
    <path class="cls-2" d="M8.53,41.85s2.05-.45,2.2-1.64,0-3.28,0-3.28c0,0-1.15-1.15-3.02-1.19s-2.2,0-2.2,0c0,0-2.23.52-2.31,1.12s0,3.58,0,3.58c0,0,.34,1.34,2.31,1.42v-1.97s.37-.45,1.47-.52,1.59.6,1.59.6l-.04,1.9Z"/>
    <path class="cls-2" d="M5.43,79.44l.08-37.58v-1.97s1.64-1.22,3.05.07l-.04,1.9v37.58l-.08,1.97s-1.58,1.17-3.05-.07l.04-1.9Z"/>
  </g>
</svg>